<svg width="32" height="32" viewBox="0 0 32 32" fill="none" xmlns="http://www.w3.org/2000/svg">
<path d="M0.71 0.0499866C1.09 0.229987 1.47 0.419987 1.84 0.599987C3.6 1.44999 5.35 2.30999 7.11 3.15999C9.55 4.33999 11.98 5.52999 14.42 6.70999C16.7 7.81999 18.98 8.92999 21.26 10.03C23 10.88 24.74 11.77 26.54 12.49C25.26 12.23 23.91 12.62 22.73 13.12C21.71 13.56 20.73 14.1 19.72 14.57C18.62 15.08 17.35 15.08 16.24 14.59L6.22 10.14C2.44 8.46999 0 4.67999 0 0.499987C0 0.129987 0.38 -0.110013 0.71 0.0499866Z" fill="url(#paint0_linear_2_2)"/>
<path d="M31.3 17.17L4.3 30.36L1.11 31.92C0.6 32.17 0 31.79 0 31.22V30.13C0 27.08 1.67 24.3 4.3 22.88C4.48 22.78 4.66 22.7 4.84 22.61L19.4 16L24 13.94C24.34 13.79 24.69 13.67 25.05 13.58C25.75 13.4 26.47 13.34 27.19 13.4C27.98 13.47 28.75 13.68 29.48 14.03L31.3 14.91C32.24 15.37 32.24 16.72 31.3 17.17Z" fill="url(#paint1_linear_2_2)"/>
<defs>
<linearGradient id="paint0_linear_2_2" x1="13.27" y1="14.96" x2="13.27" y2="-1.3504e-05" gradientUnits="userSpaceOnUse">
<stop stop-color="#3547FF"/>
<stop offset="1" stop-color="#8903FF"/>
</linearGradient>
<linearGradient id="paint1_linear_2_2" x1="-0.94" y1="30" x2="30.06" y2="13.5" gradientUnits="userSpaceOnUse">
<stop stop-color="#8903FF"/>
<stop offset="1" stop-color="#3547FF"/>
</linearGradient>
</defs>
</svg>
